<svg width="611" height="306" viewBox="0 0 611 306" fill="none" xmlns="http://www.w3.org/2000/svg">
<rect x="6.5" y="150.5" width="598" height="149" rx="13.5" stroke="#9E9E9E" stroke-width="13"/>
<path d="M56.6222 246V206H64.0444V239.467H76.5333V246H56.6222ZM94.175 246.8C91.2417 246.8 88.6343 246.178 86.3528 244.933C84.1009 243.689 82.338 241.985 81.0639 239.822C79.8194 237.63 79.1972 235.156 79.1972 232.4C79.1972 229.763 79.8046 227.407 81.0194 225.333C82.2639 223.23 83.938 221.57 86.0417 220.356C88.1454 219.141 90.4713 218.533 93.0194 218.533C95.6269 218.533 97.9528 219.141 99.9972 220.356C102.071 221.541 103.716 223.156 104.931 225.2C106.145 227.244 106.753 229.57 106.753 232.178V234.711H90.175C89.4343 234.711 88.7083 234.667 87.9972 234.578C87.2861 234.489 86.575 234.385 85.8639 234.267C86.2194 236.193 87.1528 237.778 88.6639 239.022C90.175 240.267 92.0713 240.889 94.3528 240.889C96.0417 240.889 97.5676 240.533 98.9306 239.822C100.294 239.111 101.419 238.222 102.308 237.156L103.908 243.689C102.575 244.726 101.079 245.496 99.4194 246C97.7602 246.533 96.012 246.8 94.175 246.8ZM85.6861 229.956C87.1972 229.659 88.6935 229.511 90.175 229.511H95.9083C96.7083 229.511 97.4639 229.541 98.175 229.6C98.8861 229.659 99.5676 229.748 100.219 229.867C99.775 228.148 98.9009 226.77 97.5972 225.733C96.3231 224.696 94.7824 224.178 92.975 224.178C91.1972 224.178 89.6565 224.711 88.3528 225.778C87.0491 226.844 86.1602 228.237 85.6861 229.956ZM114.65 246V224.933H109.406V219.333H114.783V210.444H121.494V219.333H127.094V224.933H121.628V246H114.65ZM127.894 220.311C129.169 218.533 130.22 216.474 131.05 214.133C131.88 211.763 132.294 209.052 132.294 206H139.094C139.094 208.726 138.754 211.289 138.072 213.689C137.391 216.089 136.383 218.296 135.05 220.311H127.894ZM150.806 246.8C149.117 246.8 147.383 246.519 145.606 245.956C143.828 245.363 142.406 244.533 141.339 243.467L143.117 236.711C143.976 237.956 145.131 239.022 146.583 239.911C148.065 240.77 149.591 241.2 151.161 241.2C152.346 241.2 153.206 240.963 153.739 240.489C154.302 239.985 154.583 239.378 154.583 238.667C154.583 237.867 154.302 237.289 153.739 236.933C153.176 236.548 152.613 236.252 152.05 236.044L148.361 234.667C147.591 234.341 146.687 233.911 145.65 233.378C144.613 232.815 143.709 232.03 142.939 231.022C142.198 229.985 141.828 228.637 141.828 226.978C141.828 225.467 142.198 224.074 142.939 222.8C143.68 221.526 144.746 220.504 146.139 219.733C147.561 218.933 149.265 218.533 151.25 218.533C153.028 218.533 154.717 218.844 156.317 219.467C157.946 220.059 159.176 220.8 160.006 221.689L158.361 228.267C157.413 226.963 156.272 225.956 154.939 225.244C153.606 224.504 152.317 224.133 151.072 224.133C150.035 224.133 149.265 224.37 148.761 224.844C148.257 225.289 148.006 225.822 148.006 226.444C148.006 226.919 148.183 227.363 148.539 227.778C148.894 228.193 149.472 228.548 150.272 228.844L153.739 230.178C154.657 230.504 155.665 230.963 156.761 231.556C157.857 232.119 158.791 232.919 159.561 233.956C160.361 234.993 160.761 236.415 160.761 238.222C160.761 240.77 159.828 242.844 157.961 244.444C156.124 246.015 153.739 246.8 150.806 246.8ZM193.831 246.622C192.112 246.622 190.512 246.311 189.031 245.689C187.579 245.067 186.319 244.222 185.253 243.156V246H179.164V203.333H186.142V221.378C187.179 220.548 188.334 219.896 189.608 219.422C190.912 218.948 192.319 218.711 193.831 218.711C196.319 218.711 198.571 219.348 200.586 220.622C202.601 221.867 204.201 223.541 205.386 225.644C206.601 227.748 207.208 230.089 207.208 232.667C207.208 235.215 206.601 237.556 205.386 239.689C204.201 241.793 202.601 243.481 200.586 244.756C198.571 246 196.319 246.622 193.831 246.622ZM192.986 240.444C194.408 240.444 195.682 240.089 196.808 239.378C197.964 238.667 198.882 237.733 199.564 236.578C200.245 235.393 200.586 234.089 200.586 232.667C200.586 231.244 200.245 229.956 199.564 228.8C198.882 227.615 197.964 226.667 196.808 225.956C195.682 225.244 194.423 224.889 193.031 224.889C191.608 224.889 190.319 225.244 189.164 225.956C188.038 226.667 187.134 227.615 186.453 228.8C185.771 229.956 185.431 231.244 185.431 232.667C185.431 234.089 185.771 235.393 186.453 236.578C187.134 237.733 188.038 238.667 189.164 239.378C190.319 240.089 191.594 240.444 192.986 240.444ZM225.8 246.8C222.867 246.8 220.259 246.178 217.978 244.933C215.726 243.689 213.963 241.985 212.689 239.822C211.444 237.63 210.822 235.156 210.822 232.4C210.822 229.763 211.43 227.407 212.644 225.333C213.889 223.23 215.563 221.57 217.667 220.356C219.77 219.141 222.096 218.533 224.644 218.533C227.252 218.533 229.578 219.141 231.622 220.356C233.696 221.541 235.341 223.156 236.556 225.2C237.77 227.244 238.378 229.57 238.378 232.178V234.711H221.8C221.059 234.711 220.333 234.667 219.622 234.578C218.911 234.489 218.2 234.385 217.489 234.267C217.844 236.193 218.778 237.778 220.289 239.022C221.8 240.267 223.696 240.889 225.978 240.889C227.667 240.889 229.193 240.533 230.556 239.822C231.919 239.111 233.044 238.222 233.933 237.156L235.533 243.689C234.2 244.726 232.704 245.496 231.044 246C229.385 246.533 227.637 246.8 225.8 246.8ZM217.311 229.956C218.822 229.659 220.319 229.511 221.8 229.511H227.533C228.333 229.511 229.089 229.541 229.8 229.6C230.511 229.659 231.193 229.748 231.844 229.867C231.4 228.148 230.526 226.77 229.222 225.733C227.948 224.696 226.407 224.178 224.6 224.178C222.822 224.178 221.281 224.711 219.978 225.778C218.674 226.844 217.785 228.237 217.311 229.956ZM254.586 260.133C252.512 260.133 250.556 259.822 248.719 259.2C246.912 258.607 245.327 257.793 243.964 256.756L245.697 249.689C246.645 250.963 247.875 252 249.386 252.8C250.927 253.63 252.66 254.044 254.586 254.044C257.371 254.044 259.564 253.23 261.164 251.6C262.764 250 263.564 247.926 263.564 245.378V243.156C262.497 244.222 261.238 245.067 259.786 245.689C258.334 246.311 256.734 246.622 254.986 246.622C252.556 246.622 250.334 246 248.319 244.756C246.305 243.481 244.69 241.793 243.475 239.689C242.29 237.556 241.697 235.215 241.697 232.667C241.697 230.119 242.29 227.793 243.475 225.689C244.69 223.556 246.305 221.867 248.319 220.622C250.334 219.348 252.556 218.711 254.986 218.711C256.734 218.711 258.349 219.022 259.831 219.644C261.312 220.267 262.571 221.141 263.608 222.267V219.333H269.697V246.267C269.697 249.17 269.001 251.659 267.608 253.733C266.216 255.807 264.364 257.393 262.053 258.489C259.742 259.585 257.253 260.133 254.586 260.133ZM255.831 240.444C257.253 240.444 258.527 240.089 259.653 239.378C260.808 238.667 261.727 237.733 262.408 236.578C263.09 235.393 263.431 234.089 263.431 232.667C263.431 231.244 263.09 229.956 262.408 228.8C261.727 227.615 260.808 226.667 259.653 225.956C258.527 225.244 257.268 224.889 255.875 224.889C254.453 224.889 253.164 225.244 252.008 225.956C250.882 226.667 249.979 227.615 249.297 228.8C248.616 229.956 248.275 231.244 248.275 232.667C248.275 234.089 248.616 235.393 249.297 236.578C249.979 237.733 250.882 238.667 252.008 239.378C253.164 240.089 254.438 240.444 255.831 240.444ZM276.333 246V219.333H283.311V246H276.333ZM279.844 215.244C278.748 215.244 277.815 214.874 277.044 214.133C276.304 213.363 275.933 212.43 275.933 211.333C275.933 210.207 276.304 209.274 277.044 208.533C277.815 207.793 278.748 207.422 279.844 207.422C280.97 207.422 281.904 207.793 282.644 208.533C283.385 209.274 283.756 210.207 283.756 211.333C283.756 212.43 283.385 213.363 282.644 214.133C281.904 214.874 280.97 215.244 279.844 215.244ZM289.914 246V219.333H296.181V222.622C297.158 221.289 298.358 220.281 299.781 219.6C301.203 218.889 302.744 218.533 304.403 218.533C306.299 218.533 308.062 218.993 309.692 219.911C311.351 220.83 312.684 222.163 313.692 223.911C314.699 225.63 315.203 227.733 315.203 230.222V246H308.225V231.156C308.225 229.496 307.736 228.03 306.758 226.756C305.781 225.481 304.388 224.844 302.581 224.844C301.099 224.844 299.781 225.363 298.625 226.4C297.469 227.407 296.892 228.948 296.892 231.022V246H289.914ZM339.206 231.689L337.917 206H345.917L344.628 231.689H339.206ZM341.917 246.8C340.702 246.8 339.68 246.385 338.85 245.556C338.02 244.696 337.606 243.674 337.606 242.489C337.606 241.274 338.02 240.252 338.85 239.422C339.68 238.563 340.702 238.133 341.917 238.133C343.131 238.133 344.154 238.563 344.983 239.422C345.813 240.252 346.228 241.274 346.228 242.489C346.228 243.674 345.813 244.696 344.983 245.556C344.154 246.385 343.131 246.8 341.917 246.8Z" fill="#9E9E9E"/>
<path d="M121.463 65.3333L96.4403 39.8667V64H89.6847V22.6667L114.663 48.0889V24H121.463V65.3333ZM142.196 64.8C139.559 64.8 137.144 64.163 134.951 62.8889C132.788 61.6148 131.07 59.9111 129.796 57.7778C128.522 55.6444 127.885 53.2741 127.885 50.6667C127.885 48.0593 128.522 45.6889 129.796 43.5556C131.07 41.4222 132.788 39.7185 134.951 38.4444C137.144 37.1704 139.544 36.5333 142.151 36.5333C144.818 36.5333 147.233 37.1704 149.396 38.4444C151.559 39.7185 153.277 41.4222 154.551 43.5556C155.855 45.6593 156.507 48.0296 156.507 50.6667C156.507 53.2444 155.855 55.6148 154.551 57.7778C153.277 59.9111 151.559 61.6148 149.396 62.8889C147.233 64.163 144.833 64.8 142.196 64.8ZM142.151 58.4889C143.603 58.4889 144.907 58.1333 146.062 57.4222C147.218 56.7111 148.137 55.763 148.818 54.5778C149.5 53.3926 149.84 52.0889 149.84 50.6667C149.84 49.2148 149.5 47.9111 148.818 46.7556C148.137 45.5704 147.218 44.6222 146.062 43.9111C144.907 43.2 143.603 42.8444 142.151 42.8444C140.729 42.8444 139.44 43.2 138.285 43.9111C137.129 44.6222 136.211 45.5704 135.529 46.7556C134.848 47.9111 134.507 49.2148 134.507 50.6667C134.507 52.0889 134.848 53.3926 135.529 54.5778C136.211 55.763 137.129 56.7111 138.285 57.4222C139.44 58.1333 140.729 58.4889 142.151 58.4889ZM178.025 64V42.9333H172.781V37.3333H178.158V28.4444H184.869V37.3333H190.469V42.9333H185.003V64H178.025ZM205.424 64.6222C202.994 64.6222 200.772 64 198.757 62.7556C196.742 61.4815 195.127 59.7926 193.913 57.6889C192.727 55.5556 192.135 53.2148 192.135 50.6667C192.135 48.1185 192.727 45.7926 193.913 43.6889C195.127 41.5556 196.742 39.8667 198.757 38.6222C200.772 37.3481 202.994 36.7111 205.424 36.7111C207.172 36.7111 208.787 37.0222 210.268 37.6444C211.75 38.2667 213.009 39.1407 214.046 40.2667V37.3333H220.135V64H214.046V61.0667C213.009 62.163 211.75 63.037 210.268 63.6889C208.787 64.3111 207.172 64.6222 205.424 64.6222ZM206.268 58.4444C207.69 58.4444 208.964 58.0889 210.09 57.3778C211.246 56.6667 212.164 55.7333 212.846 54.5778C213.527 53.3926 213.868 52.0889 213.868 50.6667C213.868 49.2444 213.527 47.9556 212.846 46.8C212.164 45.6148 211.246 44.6667 210.09 43.9556C208.964 43.2444 207.705 42.8889 206.312 42.8889C204.89 42.8889 203.601 43.2444 202.446 43.9556C201.32 44.6667 200.416 45.6148 199.735 46.8C199.053 47.9556 198.713 49.2444 198.713 50.6667C198.713 52.0889 199.053 53.3926 199.735 54.5778C200.416 55.7333 201.32 56.6667 202.446 57.3778C203.601 58.0889 204.875 58.4444 206.268 58.4444ZM234.993 64.8C233.304 64.8 231.571 64.5185 229.793 63.9556C228.015 63.363 226.593 62.5333 225.526 61.4667L227.304 54.7111C228.163 55.9556 229.319 57.0222 230.771 57.9111C232.252 58.7704 233.778 59.2 235.349 59.2C236.534 59.2 237.393 58.963 237.926 58.4889C238.489 57.9852 238.771 57.3778 238.771 56.6667C238.771 55.8667 238.489 55.2889 237.926 54.9333C237.363 54.5481 236.8 54.2519 236.238 54.0444L232.549 52.6667C231.778 52.3407 230.875 51.9111 229.838 51.3778C228.8 50.8148 227.897 50.0296 227.126 49.0222C226.386 47.9852 226.015 46.637 226.015 44.9778C226.015 43.4667 226.386 42.0741 227.126 40.8C227.867 39.5259 228.934 38.5037 230.326 37.7333C231.749 36.9333 233.452 36.5333 235.438 36.5333C237.215 36.5333 238.904 36.8444 240.504 37.4667C242.134 38.0593 243.363 38.8 244.193 39.6889L242.549 46.2667C241.6 44.963 240.46 43.9556 239.126 43.2444C237.793 42.5037 236.504 42.1333 235.26 42.1333C234.223 42.1333 233.452 42.3704 232.949 42.8444C232.445 43.2889 232.193 43.8222 232.193 44.4444C232.193 44.9185 232.371 45.363 232.726 45.7778C233.082 46.1926 233.66 46.5481 234.46 46.8444L237.926 48.1778C238.845 48.5037 239.852 48.963 240.949 49.5556C242.045 50.1185 242.978 50.9185 243.749 51.9556C244.549 52.9926 244.949 54.4148 244.949 56.2222C244.949 58.7704 244.015 60.8444 242.149 62.4444C240.312 64.0148 237.926 64.8 234.993 64.8ZM267.683 64L256.661 49.3333L265.728 37.3333H273.328L264.439 48.7556L275.994 64H267.683ZM250.039 64V21.3333H257.017V64H250.039ZM287.618 64.8C285.929 64.8 284.196 64.5185 282.418 63.9556C280.64 63.363 279.218 62.5333 278.151 61.4667L279.929 54.7111C280.788 55.9556 281.944 57.0222 283.396 57.9111C284.877 58.7704 286.403 59.2 287.974 59.2C289.159 59.2 290.018 58.963 290.551 58.4889C291.114 57.9852 291.396 57.3778 291.396 56.6667C291.396 55.8667 291.114 55.2889 290.551 54.9333C289.988 54.5481 289.425 54.2519 288.863 54.0444L285.174 52.6667C284.403 52.3407 283.5 51.9111 282.463 51.3778C281.425 50.8148 280.522 50.0296 279.751 49.0222C279.011 47.9852 278.64 46.637 278.64 44.9778C278.64 43.4667 279.011 42.0741 279.751 40.8C280.492 39.5259 281.559 38.5037 282.951 37.7333C284.374 36.9333 286.077 36.5333 288.062 36.5333C289.84 36.5333 291.529 36.8444 293.129 37.4667C294.759 38.0593 295.988 38.8 296.818 39.6889L295.174 46.2667C294.225 44.963 293.085 43.9556 291.751 43.2444C290.418 42.5037 289.129 42.1333 287.885 42.1333C286.848 42.1333 286.077 42.3704 285.574 42.8444C285.07 43.2889 284.818 43.8222 284.818 44.4444C284.818 44.9185 284.996 45.363 285.351 45.7778C285.707 46.1926 286.285 46.5481 287.085 46.8444L290.551 48.1778C291.47 48.5037 292.477 48.963 293.574 49.5556C294.67 50.1185 295.603 50.9185 296.374 51.9556C297.174 52.9926 297.574 54.4148 297.574 56.2222C297.574 58.7704 296.64 60.8444 294.774 62.4444C292.937 64.0148 290.551 64.8 287.618 64.8ZM323.843 72C321.591 68.2963 319.828 64.3111 318.554 60.0444C317.31 55.7481 316.688 51.2889 316.688 46.6667C316.688 42.0444 317.31 37.6 318.554 33.3333C319.828 29.037 321.591 25.037 323.843 21.3333H330.999C328.539 24.9185 326.628 28.8444 325.265 33.1111C323.932 37.3778 323.265 41.8963 323.265 46.6667C323.265 51.4074 323.932 55.9259 325.265 60.2222C326.628 64.4889 328.539 68.4148 330.999 72H323.843ZM346.096 48.192C351.856 48.192 356.464 52.8 356.464 58.496C356.464 64.256 351.856 68.864 346.096 68.864C340.4 68.864 335.728 64.256 335.728 58.496C335.728 52.8 340.4 48.192 346.096 48.192ZM346.096 64.256C349.296 64.256 351.856 61.696 351.856 58.496C351.856 55.36 349.296 52.8 346.096 52.8C342.96 52.8 340.336 55.36 340.336 58.496C340.336 61.696 342.96 64.256 346.096 64.256ZM376.667 50.9333C374.77 50.9333 373.141 50.2519 371.778 48.8889C370.415 47.5259 369.733 45.8963 369.733 44C369.733 42.0741 370.415 40.4444 371.778 39.1111C373.141 37.7481 374.77 37.0667 376.667 37.0667C378.593 37.0667 380.222 37.7481 381.556 39.1111C382.919 40.4444 383.6 42.0741 383.6 44C383.6 45.8963 382.919 47.5259 381.556 48.8889C380.222 50.2519 378.593 50.9333 376.667 50.9333ZM397.579 33.7333L401.668 24.9333H409.357L403.135 33.7333H397.579ZM391.793 68.288L389.105 61.952L419.312 43.584L449.457 61.952L446.769 68.288L419.312 51.52L391.793 68.288ZM461.979 50.9333C460.083 50.9333 458.453 50.2519 457.09 48.8889C455.727 47.5259 455.046 45.8963 455.046 44C455.046 42.0741 455.727 40.4444 457.09 39.1111C458.453 37.7481 460.083 37.0667 461.979 37.0667C463.905 37.0667 465.535 37.7481 466.868 39.1111C468.231 40.4444 468.913 42.0741 468.913 44C468.913 45.8963 468.231 47.5259 466.868 48.8889C465.535 50.2519 463.905 50.9333 461.979 50.9333ZM488.803 33.7333L482.581 24.9333H490.269L494.358 33.7333H488.803ZM484.721 48.192C490.481 48.192 495.089 52.8 495.089 58.496C495.089 64.256 490.481 68.864 484.721 68.864C479.025 68.864 474.353 64.256 474.353 58.496C474.353 52.8 479.025 48.192 484.721 48.192ZM484.721 64.256C487.921 64.256 490.481 61.696 490.481 58.496C490.481 55.36 487.921 52.8 484.721 52.8C481.585 52.8 478.961 55.36 478.961 58.496C478.961 61.696 481.585 64.256 484.721 64.256ZM507.558 72C510.018 68.4148 511.914 64.4889 513.247 60.2222C514.61 55.9259 515.292 51.4074 515.292 46.6667C515.292 41.8963 514.61 37.3778 513.247 33.1111C511.914 28.8444 510.018 24.9185 507.558 21.3333H514.714C516.995 25.037 518.758 29.037 520.003 33.3333C521.247 37.6 521.869 42.0444 521.869 46.6667C521.869 51.2889 521.247 55.7481 520.003 60.0444C518.758 64.3111 516.995 68.2963 514.714 72H507.558Z" fill="#9E9E9E"/>
<path d="M493.375 220.042L506.5 233.417L550.25 188.833M545.875 224.5V255.708C545.875 258.073 544.953 260.341 543.312 262.013C541.671 263.686 539.446 264.625 537.125 264.625H475.875C473.554 264.625 471.329 263.686 469.688 262.013C468.047 260.341 467.125 258.073 467.125 255.708V193.292C467.125 190.927 468.047 188.659 469.688 186.987C471.329 185.314 473.554 184.375 475.875 184.375H524" stroke="#9E9E9E" stroke-width="12" stroke-linecap="round" stroke-linejoin="round"/>
</svg>
